<svg width="43" height="43" viewBox="0 0 43 43" fill="none" xmlns="http://www.w3.org/2000/svg">
<path fill-rule="evenodd" clip-rule="evenodd" d="M34.4001 0.949843C34.4905 0.941629 34.6876 1.01556 34.8355 1.10592C34.9752 1.19628 35.4762 1.63164 35.9362 2.07522C36.3962 2.51059 37.0616 3.2581 37.4148 3.73454C37.8091 4.26026 38.2609 5.00777 38.5813 5.66493C38.8688 6.25637 39.1974 7.04495 39.3124 7.43103C39.4274 7.81711 39.5752 8.48248 39.6492 8.90963C39.7231 9.33678 39.7806 10.15 39.7806 10.7168C39.7806 11.2836 39.7231 12.0804 39.6492 12.4829C39.5835 12.8854 39.452 13.4851 39.3534 13.7972C39.2631 14.1094 39.0659 14.668 38.9181 15.0294C38.7702 15.3908 38.4663 15.9987 38.2445 16.3848C38.0309 16.7708 37.6284 17.3787 37.3573 17.7402C37.0863 18.1016 36.4866 18.767 35.1887 20.0402L35.1805 21.7242H35.4023C35.5337 21.7242 35.9445 21.6667 36.3305 21.6009C36.7166 21.5352 37.5791 21.4284 38.2609 21.3545C38.9345 21.2806 40.101 21.2066 40.8485 21.1738C41.8178 21.1327 42.2778 21.1491 42.4503 21.2149C42.5817 21.2724 42.7624 21.4366 42.8528 21.5845C42.9514 21.757 42.9924 21.9295 42.9596 22.0938C42.9267 22.2252 42.8117 22.4306 42.6885 22.5456C42.516 22.7181 42.3846 22.751 41.9328 22.7756C41.6288 22.7838 40.7335 22.8331 39.9449 22.8824C39.1563 22.9317 37.9898 23.0385 37.3573 23.1206C36.7248 23.211 35.8952 23.3342 35.5091 23.4081C35.123 23.482 34.4084 23.6299 33.9073 23.7449C33.4062 23.8599 32.4287 24.1146 31.7304 24.3199C31.0322 24.5253 30.0301 24.8539 29.5125 25.0428C28.995 25.2399 28.1982 25.5521 27.7464 25.7492C27.2947 25.9382 26.3171 26.3982 25.5696 26.7678C24.8221 27.1375 23.7132 27.7453 23.1053 28.1068C22.4974 28.4764 21.5363 29.0925 20.9695 29.4868C20.4027 29.8811 19.5895 30.489 19.1624 30.8257C18.7352 31.1708 17.9959 31.7868 17.5195 32.2058C17.043 32.6165 16.1559 33.4708 15.548 34.0951C14.9401 34.7276 14.1023 35.6394 13.6998 36.1241C13.289 36.6169 12.7058 37.3562 12.4019 37.7669C12.0897 38.1859 11.5722 38.9252 11.2436 39.4263C10.9151 39.9273 10.3318 40.8474 9.94577 41.4799C9.55969 42.1124 9.14075 42.712 9.00932 42.8188C8.87789 42.9174 8.68896 43.0078 8.58217 42.9995C8.4836 42.9995 8.29466 42.9338 8.15502 42.8517C8.02359 42.7778 7.86751 42.597 7.81823 42.4656C7.76073 42.3342 7.7443 42.1288 7.76894 42.0138C7.79358 41.8988 8.24538 41.102 8.7711 40.2477C9.30504 39.3934 9.95398 38.3748 10.2168 37.9887C10.644 37.3727 10.6851 37.2823 10.5536 37.2166C10.4797 37.1755 9.98684 36.9948 9.46933 36.8223C8.95182 36.6498 8.08109 36.3951 7.53894 36.2555C6.99678 36.1241 6.10962 35.9433 5.56747 35.853C5.02532 35.7626 3.91637 35.6476 3.10314 35.5983C2.28991 35.549 1.51776 35.4669 1.38632 35.4094C1.25489 35.3601 1.09882 35.204 1.0331 35.0726C0.959174 34.9247 0.926317 34.7276 0.959174 34.5797C0.983818 34.4483 1.09882 34.243 1.22204 34.1279C1.4274 33.9308 1.46025 33.9226 2.59385 33.939C3.23457 33.9472 4.2203 34.0047 4.7871 34.0787C5.3539 34.1444 6.29034 34.3005 6.88178 34.4237C7.47322 34.5387 8.4261 34.7769 9.01754 34.9494C9.60897 35.1219 10.4551 35.4094 11.7283 35.9187L12.139 35.4176C12.3608 35.1383 12.714 34.7276 12.9112 34.4976C13.1083 34.2758 13.708 33.6269 15.203 32.0333L14.2419 31.6061C13.7162 31.3761 12.9933 31.0722 12.6319 30.9325C12.2705 30.7929 11.5722 30.5547 11.0711 30.3986C10.5783 30.2425 9.81434 30.0207 9.38719 29.9057C8.96003 29.7989 8.13038 29.61 7.53894 29.495C6.9475 29.3882 5.99462 29.2321 5.40318 29.1582C4.81174 29.0843 3.7028 28.9939 2.92242 28.9693C1.69847 28.92 1.4849 28.8871 1.28775 28.7475C1.16454 28.6571 1.0331 28.4682 0.983818 28.3368C0.942745 28.2053 0.934531 28.0082 0.959174 27.9014C0.983818 27.8028 1.09882 27.6303 1.21382 27.5153C1.40275 27.3182 1.45204 27.31 2.42134 27.31C2.97993 27.31 3.98209 27.3675 4.66388 27.4332C5.33747 27.4989 6.2657 27.6057 6.71749 27.6796C7.16929 27.7535 7.89216 27.885 8.31931 27.9753C8.74646 28.0657 9.52683 28.2464 10.0443 28.3861C10.5618 28.5257 11.3422 28.7475 11.7694 28.8871C12.1965 29.0268 13.0098 29.3225 13.5765 29.5443C14.1433 29.7661 15.0387 30.1522 16.5337 30.8422L17.4538 30.0782C17.9631 29.6593 18.8091 29.0021 19.3267 28.6243C19.8442 28.2464 20.3042 27.9178 20.337 27.8932C20.3699 27.8685 19.8688 27.5564 19.2281 27.2114C18.5791 26.8664 17.5934 26.3735 17.0266 26.1189C16.4598 25.8642 15.5234 25.4699 14.9319 25.2481C14.3405 25.0181 13.3465 24.6731 12.714 24.476C12.0815 24.2788 11.0054 23.9913 10.3318 23.8353C9.65005 23.671 8.5411 23.4492 7.86751 23.3342C7.18572 23.2192 6.07677 23.0713 5.40318 23.0056C4.72139 22.9399 3.57958 22.8577 2.85671 22.8331C2.05991 22.8002 1.46025 22.7345 1.33704 22.6688C1.22204 22.6113 1.08239 22.4635 1.02489 22.332C0.959174 22.2006 0.934531 21.9788 0.959174 21.8474C0.983818 21.7159 1.09882 21.5106 1.22204 21.3956C1.41918 21.2066 1.4849 21.1902 2.26527 21.1902C2.72528 21.1902 3.61244 21.2149 5.36211 21.3134V18.6027L4.68031 17.9209C4.31066 17.543 3.8178 16.9598 3.58779 16.623C3.34958 16.2862 3.02921 15.7523 2.87314 15.4401C2.70885 15.128 2.47884 14.5858 2.36384 14.249C2.24884 13.9122 2.10098 13.3372 2.03527 12.9758C1.96134 12.6143 1.91205 11.9325 1.91205 11.4561C1.91205 10.9797 1.96134 10.2979 2.03527 9.93644C2.10098 9.575 2.24063 9.01642 2.34741 8.70427C2.4542 8.39212 2.68421 7.84997 2.84849 7.51318C3.021 7.17639 3.28386 6.70816 3.43172 6.48637C3.58779 6.25637 3.9328 5.81279 4.19566 5.50064C4.46674 5.18028 4.92675 4.71205 5.23068 4.44919C5.5264 4.19455 5.85498 3.95633 5.95355 3.93168C6.06034 3.90704 6.24106 3.90704 6.36427 3.93168C6.4957 3.95633 6.84071 4.19455 7.13643 4.44919C7.44036 4.71205 7.90037 5.18028 8.17145 5.50064C8.43431 5.81279 8.77932 6.25637 8.93539 6.48637C9.08325 6.70816 9.34611 7.17639 9.51862 7.51318C9.6829 7.84997 9.91291 8.39212 10.0197 8.70427C10.1265 9.01642 10.2661 9.575 10.3318 9.93644C10.4058 10.2979 10.4551 10.9797 10.4551 11.4561C10.4551 11.9325 10.4058 12.6143 10.3318 12.9758C10.2661 13.3372 10.1183 13.9122 10.0033 14.249C9.88827 14.5858 9.65826 15.128 9.49397 15.4401C9.3379 15.7523 9.01754 16.2862 8.77932 16.623C8.54931 16.9598 8.05645 17.543 7.005 18.6027V21.5188L7.76073 21.6338C8.17966 21.6913 8.57396 21.757 8.62324 21.7734C8.70539 21.7981 8.73003 21.4366 8.73003 20.1634C8.73003 18.8984 8.75467 18.4712 8.84503 18.2905C8.91075 18.1673 10.0526 16.9926 11.3751 15.6701C13.3876 13.6658 13.8312 13.2633 14.0694 13.2222C14.2255 13.1976 16.4845 13.1811 19.0802 13.1976C23.3435 13.2222 23.8199 13.2386 24.0089 13.3619C24.1239 13.4358 25.2739 14.594 28.9375 18.3562V20.9027C28.9375 22.3074 28.9622 23.4492 28.995 23.4492C29.0361 23.4492 29.5043 23.3013 30.0465 23.1206C30.5886 22.9317 31.4594 22.677 31.9769 22.5374C32.4944 22.3977 33.0612 22.2499 33.5376 22.1349V19.9991L32.634 19.0955C32.1001 18.5616 31.4922 17.8469 31.1472 17.3459C30.8351 16.8858 30.3915 16.1383 30.1697 15.6865C29.9479 15.2347 29.6522 14.5119 29.5208 14.0847C29.3811 13.6576 29.2168 12.9511 29.1429 12.524C29.0608 12.064 29.0115 11.2836 29.0115 10.6347C29.0115 9.86251 29.0608 9.26285 29.1758 8.6632C29.2661 8.18676 29.4304 7.53782 29.5372 7.22567C29.644 6.91352 29.8493 6.3878 29.989 6.07565C30.1286 5.75529 30.4161 5.20492 30.6215 4.84349C30.8351 4.48205 31.1801 3.96454 31.3854 3.69346C31.5908 3.42239 31.9851 2.96238 32.2562 2.66666C32.519 2.37094 33.0037 1.8945 33.3241 1.59878C33.6444 1.31128 33.9812 1.04842 34.0716 1.01556C34.1619 0.982701 34.3098 0.949843 34.4001 0.949843ZM42.2449 27.2935C42.3599 27.31 42.5406 27.3921 42.6556 27.4743C42.7706 27.5482 42.8939 27.7207 42.9349 27.8521C42.9842 28.0164 42.976 28.1725 42.8939 28.3696C42.8282 28.5257 42.7049 28.7064 42.6146 28.7639C42.4996 28.8461 41.9656 28.9036 40.8895 28.9529C40.0352 28.9939 38.8852 29.0843 38.3431 29.1582C37.8009 29.2321 37.0452 29.3471 36.6591 29.4129C36.273 29.4868 35.5009 29.6511 34.9341 29.7907C34.3673 29.9304 33.4637 30.1768 32.9215 30.3493C32.3794 30.5218 31.8619 30.6697 31.7715 30.6779C31.6812 30.6861 31.5415 30.6943 31.4594 30.6861C31.3854 30.6861 31.2047 30.5711 31.0733 30.4315C30.8926 30.2507 30.8269 30.1111 30.8269 29.8975C30.8269 29.6922 30.8926 29.5443 31.0486 29.3718C31.2212 29.1993 31.5333 29.0596 32.2644 28.8296C32.8065 28.6653 33.6526 28.4189 34.1537 28.2875C34.6548 28.1561 35.6487 27.9425 36.3716 27.811C37.0945 27.6796 38.072 27.5235 38.5484 27.4743C39.0249 27.4168 40.0024 27.3428 40.7253 27.3182C41.4481 27.2853 42.1299 27.2771 42.2449 27.2935ZM28.0586 30.7847C28.2065 30.8175 28.3707 30.8915 28.4282 30.949C28.4857 31.0065 28.5679 31.1625 28.6007 31.294C28.6336 31.4336 28.65 31.6143 28.6336 31.7047C28.6172 31.795 28.5104 31.9676 28.3954 32.099C28.2311 32.2633 28.0997 32.3208 27.8615 32.3208C27.615 32.3208 27.4836 32.2633 27.2947 32.0743C27.1139 31.8936 27.0482 31.754 27.0482 31.524C27.04 31.3022 27.1057 31.1461 27.2454 30.99C27.3604 30.8668 27.5329 30.76 27.6232 30.7436C27.7136 30.7272 27.9107 30.7436 28.0586 30.7847ZM24.4607 32.7726C24.5921 32.7972 24.8057 32.9204 24.9289 33.0601C25.0603 33.1915 25.1589 33.3969 25.1589 33.5119C25.1589 33.6269 25.1178 33.8076 25.0768 33.9226C25.0275 34.0376 24.6742 34.358 24.2717 34.6372C23.8774 34.9165 23.3024 35.3519 22.9821 35.5983C22.6617 35.853 21.9635 36.4444 21.4295 36.9209C20.8874 37.3973 20.0824 38.1694 19.647 38.6459C19.2034 39.1223 18.5956 39.8041 18.2998 40.1656C17.9959 40.527 17.4291 41.2581 17.0348 41.8002C16.6487 42.3342 16.2791 42.8106 16.2134 42.8681C16.1477 42.9174 15.9341 42.9585 15.7369 42.9585C15.4412 42.9585 15.3344 42.9174 15.1701 42.7367C15.0387 42.5833 14.973 42.4054 14.973 42.2027C14.9648 41.9481 15.0716 41.7427 15.5152 41.1102C15.8191 40.6831 16.2462 40.0916 16.4762 39.7959C16.7062 39.5002 17.2402 38.8759 17.6509 38.3995C18.0698 37.923 18.8256 37.1262 19.3431 36.6251C19.8524 36.1241 20.526 35.4998 20.8463 35.2287C21.1585 34.9576 21.676 34.5387 21.9963 34.284C22.3167 34.0376 22.826 33.6515 23.1464 33.4215C23.4667 33.1915 23.8364 32.9451 23.9678 32.8711C24.1157 32.789 24.3128 32.7479 24.4607 32.7726ZM41.5221 33.8979C41.9656 33.8897 42.4092 33.9226 42.5078 33.9637C42.6146 34.0129 42.7624 34.169 42.8528 34.3169C42.9514 34.4894 42.9924 34.6619 42.9596 34.8262C42.9267 34.9658 42.8117 35.163 42.6885 35.278C42.4914 35.4751 42.4092 35.4833 41.2346 35.549C40.5445 35.5819 39.5588 35.664 39.0413 35.738C38.5238 35.8037 37.6695 35.9516 37.152 36.0666C36.6345 36.1816 35.8212 36.3869 35.3448 36.5183C34.8684 36.658 34.0962 36.9209 33.6198 37.1016C33.1433 37.2823 32.2972 37.6519 31.7304 37.9148C31.1637 38.1859 30.4079 38.5802 30.0465 38.7855C29.6851 38.9909 29.0525 39.3852 28.65 39.6563C28.2475 39.9273 27.5411 40.4366 27.0893 40.7899C26.6375 41.1431 25.9311 41.7427 25.5285 42.1206C25.126 42.4985 24.6989 42.8599 24.5839 42.9092C24.4689 42.9749 24.2717 42.9995 24.1321 42.9667C24.0007 42.942 23.7953 42.827 23.6803 42.7038C23.5324 42.5477 23.4749 42.3999 23.4749 42.1617C23.4749 41.8495 23.5242 41.7838 24.3457 40.9952C24.8221 40.5434 25.5943 39.8616 26.0707 39.5002C26.5389 39.1305 27.3111 38.572 27.7875 38.2598C28.264 37.9477 28.9868 37.4959 29.3893 37.2659C29.7918 37.0359 30.5558 36.6498 31.0733 36.4033C31.5908 36.1569 32.519 35.7708 33.1269 35.5408C33.7348 35.3108 34.6384 35.0069 35.1394 34.8672C35.6405 34.7276 36.577 34.514 37.2341 34.3826C37.8913 34.2512 38.8113 34.1033 39.2877 34.054C39.7642 34.0047 40.2817 33.9472 40.4377 33.9308C40.5938 33.9226 41.0867 33.8979 41.5221 33.8979Z" fill="#067647"/>
<path fill-rule="evenodd" clip-rule="evenodd" d="M34.3999 2.80664L35.131 3.5788C35.5253 4.00595 36.051 4.63025 36.2892 4.96704C36.5274 5.30383 36.8478 5.84598 37.0121 6.15813C37.1682 6.47028 37.3653 6.881 37.4392 7.06172C37.5132 7.24244 37.6528 7.62851 37.7432 7.92423C37.8335 8.21995 37.9567 8.75389 38.0225 9.11533C38.0882 9.47676 38.1375 10.1832 38.1375 10.6761C38.1375 11.1772 38.08 11.9165 38.0142 12.319C37.9403 12.7215 37.7925 13.3375 37.6775 13.6743C37.5625 14.0111 37.3242 14.5861 37.1517 14.9476C36.9792 15.309 36.6589 15.8676 36.4453 16.1797C36.2399 16.4919 35.9031 16.9519 35.706 17.1901C35.5088 17.4201 35.3117 17.6173 35.2624 17.6173C35.2131 17.6173 35.1803 16.4837 35.1803 11.1279L34.9749 10.9225C34.8599 10.8075 34.6874 10.6925 34.5806 10.6679C34.482 10.6432 34.2849 10.6514 34.1535 10.6925C34.022 10.7418 33.8331 10.8732 33.7427 10.9964C33.5867 11.21 33.5784 11.3661 33.5374 17.6994L33.1595 17.2723C32.9542 17.034 32.5927 16.5412 32.3463 16.1797C32.1081 15.8183 31.7959 15.2844 31.6481 14.9886C31.5002 14.6929 31.2702 14.1426 31.1388 13.7565C31.0155 13.3704 30.8513 12.7461 30.7773 12.36C30.7034 11.9657 30.6459 11.2347 30.6459 10.6761C30.6459 10.1339 30.7034 9.39462 30.7773 9.03318C30.843 8.67175 30.9827 8.12138 31.073 7.80102C31.1716 7.48887 31.3934 6.93029 31.5659 6.56885C31.7384 6.20742 32.0999 5.58312 32.3627 5.1724C32.6338 4.76989 33.2006 4.07166 33.6277 3.61987L34.3999 2.80664ZM6.17509 5.86241C6.19974 5.86241 6.44617 6.09241 6.72546 6.37992C6.99654 6.66743 7.41547 7.19315 7.64548 7.55458C7.8837 7.91602 8.17941 8.49103 8.31085 8.82782C8.44228 9.16461 8.60657 9.73141 8.6805 10.0764C8.74621 10.4296 8.81193 11.0457 8.81193 11.4564C8.81193 11.8589 8.75443 12.4586 8.69692 12.7872C8.63121 13.1158 8.46692 13.6826 8.32727 14.044C8.18763 14.4054 7.84262 15.0544 7.04582 16.2619L6.96368 10.4543L6.67617 10.2078C6.42974 9.99427 6.33938 9.96141 6.10116 10.0025C5.93687 10.0353 5.71508 10.1503 5.40294 10.4707L5.32079 16.2619L4.80328 15.4815C4.51578 15.0544 4.17077 14.4054 4.03112 14.044C3.89148 13.6826 3.72719 13.1158 3.66969 12.7872C3.60397 12.4586 3.55469 11.8589 3.55469 11.4564C3.55469 11.0457 3.61219 10.4296 3.6779 10.0764C3.75183 9.73141 3.91612 9.16461 4.04755 8.82782C4.17898 8.49103 4.48292 7.91602 4.71292 7.55458C4.94293 7.19315 5.35365 6.66743 5.63294 6.37992C5.90402 6.10063 6.14223 5.87063 6.17509 5.86241ZM23.1461 14.8244L24.6001 16.2783C25.4051 17.0833 26.0376 17.7651 26.0047 17.798C25.9719 17.8308 24.4111 17.8637 19.121 17.8637L17.6589 16.4015C16.8539 15.6047 16.2213 14.9147 16.2542 14.8819C16.2871 14.849 17.8478 14.8244 23.1461 14.8244ZM14.1431 15.2351C14.1677 15.2351 14.751 15.7937 15.441 16.4837C16.1392 17.1737 16.6731 17.7651 16.6403 17.798C16.6074 17.8308 15.4903 17.8637 14.1513 17.8637C12.8206 17.8637 11.6952 17.8391 11.6623 17.8062C11.6213 17.7651 12.1634 17.1737 12.8534 16.4837C13.5434 15.7937 14.1267 15.2351 14.1431 15.2351ZM10.3727 19.5066H17.9299V22.0941C17.9299 23.5152 17.9053 24.6817 17.8889 24.6817C17.8642 24.6817 17.6014 24.5667 16.7799 24.1888V22.7266C16.7799 21.4123 16.7635 21.248 16.6156 21.0016C16.5006 20.8209 16.3528 20.7141 16.1392 20.6566C15.9667 20.6073 15.0713 20.5745 14.1513 20.5745C13.2231 20.5745 12.3277 20.6073 12.1552 20.6566C11.9498 20.7141 11.7938 20.8209 11.687 21.0016C11.5638 21.207 11.5227 21.4123 11.5227 22.4227L11.2516 22.357C11.1038 22.3241 10.8491 22.2584 10.3727 22.1352V19.5066ZM19.5728 19.5066H27.278L27.2533 24.1231L25.9801 24.7063C25.2737 25.0349 24.2222 25.5606 23.639 25.881C23.0475 26.2014 22.4232 26.5546 21.914 26.8339L21.2979 26.4724C20.9529 26.2671 20.4271 25.9631 19.5728 25.5031V19.5066ZM13.1491 22.2995H15.137V22.9156C15.137 23.4577 15.1206 23.5234 14.9892 23.4906C14.907 23.4659 14.4799 23.3263 13.2066 22.8992L13.1491 22.2995Z" fill="#DCFAE6"/>
<path d="M33.7531 7.85906C33.8271 7.75227 33.9667 7.63727 34.0653 7.5962C34.1557 7.55513 34.3035 7.52227 34.3857 7.52227C34.4596 7.51405 34.6403 7.57156 34.7717 7.63727C34.9032 7.70299 35.0592 7.83442 35.1003 7.92478C35.1496 8.01514 35.1825 8.19585 35.1825 8.3355C35.1825 8.47514 35.1496 8.65586 35.1003 8.74622C35.0592 8.83658 34.895 8.96801 34.7553 9.04194C34.5828 9.12408 34.3857 9.15694 34.2214 9.12408C34.0571 9.09944 33.8846 8.98444 33.786 8.85301C33.6874 8.72158 33.6135 8.49979 33.6217 8.3355C33.6217 8.17942 33.6792 7.96585 33.7531 7.85906Z" fill="#067647"/>
</svg>
