<svg width="56" height="56" viewBox="0 0 56 56" fill="none" xmlns="http://www.w3.org/2000/svg">
<rect width="56" height="56" rx="28" fill="#F2F4F7"/>
<g opacity="0.08">
<rect x="0.375" y="0.375" width="55.25" height="55.25" rx="27.625" stroke="#101828" stroke-width="0.75"/>
</g>
<path d="M38.6663 40C38.6663 38.1392 38.6663 37.2089 38.4367 36.4518C37.9196 34.7473 36.5857 33.4134 34.8812 32.8963C34.1241 32.6667 33.1938 32.6667 31.333 32.6667H24.6663C22.8056 32.6667 21.8752 32.6667 21.1182 32.8963C19.4136 33.4134 18.0797 34.7473 17.5627 36.4518C17.333 37.2089 17.333 38.1392 17.333 40M33.9997 22C33.9997 25.3137 31.3134 28 27.9997 28C24.686 28 21.9997 25.3137 21.9997 22C21.9997 18.6863 24.686 16 27.9997 16C31.3134 16 33.9997 18.6863 33.9997 22Z" stroke="#475467" stroke-width="2.66667" stroke-linecap="round" stroke-linejoin="round"/>
</svg>
