<svg width="163" height="40" viewBox="0 0 163 40" fill="none" xmlns="http://www.w3.org/2000/svg">
<g filter="url(#filter0_d_1_20939)">
<rect x="2" y="1" width="159" height="36" rx="8" fill="white"/>
<rect x="2.5" y="1.5" width="158" height="35" rx="7.5" stroke="#D0D5DD"/>
<path d="M33.5 21.5V22.5C33.5 23.9001 33.5 24.6002 33.2275 25.135C32.9878 25.6054 32.6054 25.9878 32.135 26.2275C31.6002 26.5 30.9001 26.5 29.5 26.5H22.5C21.0999 26.5 20.3998 26.5 19.865 26.2275C19.3946 25.9878 19.0122 25.6054 18.7725 25.135C18.5 24.6002 18.5 23.9001 18.5 22.5V21.5M30.1667 15.6667L26 11.5M26 11.5L21.8333 15.6667M26 11.5V21.5" stroke="#344054" stroke-width="1.66667" stroke-linecap="round" stroke-linejoin="round"/>
<path d="M53.5753 17.1293H52.0241C51.9645 16.7978 51.8535 16.5062 51.6911 16.2543C51.5286 16.0024 51.3298 15.7886 51.0945 15.6129C50.8591 15.4373 50.5956 15.3047 50.304 15.2152C50.0156 15.1257 49.709 15.081 49.3842 15.081C48.7976 15.081 48.2723 15.2285 47.8082 15.5234C47.3475 15.8184 46.983 16.2509 46.7145 16.821C46.4493 17.3911 46.3168 18.0871 46.3168 18.9091C46.3168 19.7377 46.4493 20.437 46.7145 21.0071C46.983 21.5772 47.3492 22.008 47.8132 22.2997C48.2772 22.5914 48.7992 22.7372 49.3793 22.7372C49.7008 22.7372 50.0057 22.6941 50.294 22.608C50.5857 22.5185 50.8492 22.3875 51.0845 22.2152C51.3198 22.0429 51.5187 21.8324 51.6811 21.5838C51.8468 21.3319 51.9612 21.0436 52.0241 20.7188L53.5753 20.7237C53.4924 21.2242 53.3317 21.6849 53.093 22.1058C52.8577 22.5234 52.5545 22.8847 52.1832 23.1896C51.8153 23.4912 51.3944 23.7249 50.9205 23.8906C50.4465 24.0563 49.9295 24.1392 49.3693 24.1392C48.4877 24.1392 47.7022 23.9304 47.0128 23.5128C46.3234 23.0919 45.7798 22.4903 45.3821 21.7081C44.9877 20.9259 44.7905 19.9929 44.7905 18.9091C44.7905 17.822 44.9893 16.889 45.3871 16.1101C45.7848 15.3279 46.3284 14.728 47.0178 14.3104C47.7071 13.8894 48.491 13.679 49.3693 13.679C49.9096 13.679 50.4134 13.7569 50.8807 13.9126C51.3513 14.0651 51.7739 14.2905 52.1484 14.5888C52.523 14.8838 52.8329 15.245 53.0781 15.6726C53.3234 16.0968 53.4891 16.5824 53.5753 17.1293ZM56.7807 19.4659V24H55.2942V13.8182H56.7608V17.6065H56.8553C57.0343 17.1955 57.3077 16.8691 57.6756 16.6271C58.0435 16.3852 58.5241 16.2642 59.1174 16.2642C59.641 16.2642 60.0984 16.3719 60.4895 16.5874C60.8839 16.8028 61.1889 17.1243 61.4043 17.5518C61.623 17.9761 61.7324 18.5064 61.7324 19.1428V24H60.2459V19.3217C60.2459 18.7616 60.1017 18.3274 59.8134 18.0192C59.525 17.7076 59.124 17.5518 58.6103 17.5518C58.2589 17.5518 57.9441 17.6264 57.6657 17.7756C57.3906 17.9247 57.1735 18.1435 57.0144 18.4318C56.8586 18.7169 56.7807 19.0616 56.7807 19.4659ZM65.9384 24.169C65.4545 24.169 65.017 24.0795 64.6259 23.9006C64.2348 23.7183 63.9249 23.4548 63.6962 23.1101C63.4708 22.7654 63.3581 22.3428 63.3581 21.8423C63.3581 21.4115 63.441 21.0568 63.6067 20.7784C63.7724 20.5 63.9962 20.2796 64.2779 20.1172C64.5596 19.9548 64.8745 19.8321 65.2225 19.7493C65.5705 19.6664 65.9251 19.6035 66.2864 19.5604C66.7438 19.5073 67.115 19.4643 67.4 19.4311C67.6851 19.3946 67.8922 19.3366 68.0215 19.2571C68.1507 19.1776 68.2154 19.0483 68.2154 18.8693V18.8345C68.2154 18.4003 68.0927 18.0639 67.8475 17.8253C67.6055 17.5866 67.2443 17.4673 66.7637 17.4673C66.2632 17.4673 65.8688 17.5784 65.5804 17.8004C65.2954 18.0192 65.0982 18.2628 64.9888 18.5312L63.5918 18.2131C63.7575 17.7491 63.9995 17.3745 64.3176 17.0895C64.6391 16.8011 65.0087 16.5923 65.4263 16.4631C65.8439 16.3305 66.2831 16.2642 66.7438 16.2642C67.0487 16.2642 67.3719 16.3007 67.7132 16.3736C68.0579 16.4432 68.3794 16.5724 68.6777 16.7614C68.9793 16.9503 69.2263 17.2204 69.4185 17.5717C69.6107 17.9197 69.7069 18.3722 69.7069 18.929V24H68.2551V22.956H68.1955C68.0994 23.1482 67.9552 23.3371 67.763 23.5227C67.5707 23.7083 67.3238 23.8625 67.0222 23.9851C66.7206 24.1077 66.3593 24.169 65.9384 24.169ZM66.2615 22.9759C66.6725 22.9759 67.0239 22.8946 67.3155 22.7322C67.6105 22.5698 67.8342 22.3577 67.9867 22.0959C68.1425 21.8307 68.2203 21.5473 68.2203 21.2457V20.2614C68.1673 20.3144 68.0646 20.3641 67.9121 20.4105C67.763 20.4536 67.5923 20.4917 67.4 20.5249C67.2078 20.5547 67.0205 20.5829 66.8382 20.6094C66.656 20.6326 66.5035 20.6525 66.3809 20.669C66.0925 20.7055 65.829 20.7668 65.5904 20.853C65.3551 20.9392 65.1661 21.0634 65.0236 21.2259C64.8844 21.3849 64.8148 21.5971 64.8148 21.8622C64.8148 22.2301 64.9507 22.5085 65.2225 22.6974C65.4943 22.883 65.8406 22.9759 66.2615 22.9759ZM73.1733 19.4659V24H71.6868V16.3636H73.1136V17.6065H73.2081C73.3838 17.2022 73.6589 16.8774 74.0334 16.6321C74.4112 16.3868 74.8868 16.2642 75.4602 16.2642C75.9806 16.2642 76.4363 16.3736 76.8274 16.5923C77.2185 16.8078 77.5218 17.1293 77.7372 17.5568C77.9527 17.9844 78.0604 18.513 78.0604 19.1428V24H76.5739V19.3217C76.5739 18.7682 76.4297 18.3357 76.1413 18.0241C75.853 17.7093 75.4569 17.5518 74.9531 17.5518C74.6084 17.5518 74.3018 17.6264 74.0334 17.7756C73.7682 17.9247 73.5578 18.1435 73.402 18.4318C73.2495 18.7169 73.1733 19.0616 73.1733 19.4659ZM83.2557 27.0227C82.6491 27.0227 82.1271 26.9432 81.6896 26.7841C81.2554 26.625 80.9008 26.4145 80.6257 26.1527C80.3506 25.8909 80.1451 25.6042 80.0092 25.2926L81.2869 24.7656C81.3764 24.9115 81.4957 25.0656 81.6449 25.228C81.7973 25.3937 82.0028 25.5346 82.2614 25.6506C82.5232 25.7666 82.8596 25.8246 83.2706 25.8246C83.834 25.8246 84.2997 25.687 84.6676 25.4119C85.0355 25.1402 85.2195 24.706 85.2195 24.1094V22.608H85.125C85.0355 22.7704 84.9063 22.951 84.7372 23.1499C84.5715 23.3487 84.3428 23.5211 84.0511 23.6669C83.7595 23.8127 83.38 23.8857 82.9126 23.8857C82.3094 23.8857 81.7659 23.7448 81.282 23.4631C80.8014 23.178 80.4202 22.7588 80.1385 22.2053C79.8601 21.6484 79.7209 20.964 79.7209 20.152C79.7209 19.34 79.8584 18.6439 80.1335 18.0639C80.4119 17.4839 80.7931 17.0398 81.277 16.7315C81.7609 16.42 82.3094 16.2642 82.9226 16.2642C83.3965 16.2642 83.7794 16.3438 84.071 16.5028C84.3627 16.6586 84.5897 16.8409 84.7521 17.0497C84.9179 17.2585 85.0455 17.4425 85.1349 17.6016H85.2443V16.3636H86.701V24.169C86.701 24.8253 86.5485 25.3639 86.2436 25.7848C85.9387 26.2057 85.526 26.5173 85.0057 26.7195C84.4886 26.9216 83.9053 27.0227 83.2557 27.0227ZM83.2408 22.6527C83.6683 22.6527 84.0296 22.5533 84.3246 22.3544C84.6229 22.1522 84.8482 21.8639 85.0007 21.4893C85.1565 21.1115 85.2344 20.6591 85.2344 20.1321C85.2344 19.6184 85.1581 19.166 85.0057 18.7749C84.8532 18.3838 84.6295 18.0788 84.3345 17.8601C84.0395 17.638 83.675 17.527 83.2408 17.527C82.7933 17.527 82.4205 17.643 82.1222 17.875C81.8239 18.1037 81.5985 18.4152 81.446 18.8097C81.2969 19.2041 81.2223 19.6449 81.2223 20.1321C81.2223 20.6326 81.2985 21.0717 81.451 21.4496C81.6035 21.8274 81.8288 22.1224 82.1271 22.3345C82.4287 22.5466 82.8 22.6527 83.2408 22.6527ZM91.9858 24.1541C91.2334 24.1541 90.5855 23.9934 90.0419 23.6719C89.5017 23.3471 89.084 22.8913 88.7891 22.3047C88.4974 21.7147 88.3516 21.0237 88.3516 20.2315C88.3516 19.4493 88.4974 18.7599 88.7891 18.1634C89.084 17.5668 89.495 17.1011 90.022 16.7663C90.5523 16.4316 91.1721 16.2642 91.8814 16.2642C92.3123 16.2642 92.7299 16.3355 93.1342 16.478C93.5386 16.6205 93.9015 16.8442 94.223 17.1491C94.5445 17.4541 94.7981 17.8501 94.9837 18.3374C95.1693 18.8213 95.2621 19.4096 95.2621 20.1023V20.6293H89.1918V19.5156H93.8054C93.8054 19.1245 93.7259 18.7782 93.5668 18.4766C93.4077 18.1716 93.1839 17.9313 92.8956 17.7557C92.6106 17.58 92.2758 17.4922 91.8913 17.4922C91.4737 17.4922 91.1091 17.5949 90.7976 17.8004C90.4893 18.0026 90.2507 18.2678 90.0817 18.5959C89.916 18.9207 89.8331 19.2737 89.8331 19.6548V20.5249C89.8331 21.0353 89.9226 21.4695 90.1016 21.8274C90.2839 22.1854 90.5374 22.4588 90.8622 22.6477C91.187 22.8333 91.5665 22.9261 92.0007 22.9261C92.2824 22.9261 92.5393 22.8864 92.7713 22.8068C93.0033 22.724 93.2038 22.6013 93.3729 22.4389C93.5419 22.2765 93.6712 22.076 93.7607 21.8374L95.1676 22.0909C95.0549 22.5052 94.8527 22.8681 94.5611 23.1797C94.2727 23.4879 93.9098 23.7282 93.4723 23.9006C93.0381 24.0696 92.5426 24.1541 91.9858 24.1541ZM100.616 26.8636V16.3636H102.068V17.6016H102.192C102.279 17.4425 102.403 17.2585 102.565 17.0497C102.728 16.8409 102.953 16.6586 103.241 16.5028C103.53 16.3438 103.911 16.2642 104.385 16.2642C105.001 16.2642 105.552 16.42 106.036 16.7315C106.519 17.0431 106.899 17.4922 107.174 18.0788C107.452 18.6655 107.592 19.3714 107.592 20.1967C107.592 21.022 107.454 21.7296 107.179 22.3196C106.904 22.9062 106.526 23.3587 106.045 23.6768C105.565 23.9917 105.016 24.1491 104.4 24.1491C103.936 24.1491 103.556 24.0713 103.261 23.9155C102.97 23.7597 102.741 23.5774 102.575 23.3686C102.41 23.1598 102.282 22.9742 102.192 22.8118H102.103V26.8636H100.616ZM102.073 20.1818C102.073 20.7187 102.151 21.1894 102.307 21.5938C102.463 21.9981 102.688 22.3146 102.983 22.5433C103.278 22.7687 103.639 22.8814 104.067 22.8814C104.511 22.8814 104.882 22.7637 105.18 22.5284C105.479 22.2898 105.704 21.9666 105.857 21.5589C106.012 21.1513 106.09 20.6922 106.09 20.1818C106.09 19.678 106.014 19.2256 105.862 18.8246C105.712 18.4235 105.487 18.107 105.185 17.875C104.887 17.643 104.514 17.527 104.067 17.527C103.636 17.527 103.271 17.638 102.973 17.8601C102.678 18.0821 102.454 18.392 102.302 18.7898C102.149 19.1875 102.073 19.6515 102.073 20.1818ZM109.257 24V16.3636H110.744V24H109.257ZM110.008 15.1854C109.749 15.1854 109.527 15.0992 109.342 14.9268C109.159 14.7512 109.068 14.5424 109.068 14.3004C109.068 14.0552 109.159 13.8464 109.342 13.674C109.527 13.4983 109.749 13.4105 110.008 13.4105C110.266 13.4105 110.487 13.4983 110.669 13.674C110.855 13.8464 110.947 14.0552 110.947 14.3004C110.947 14.5424 110.855 14.7512 110.669 14.9268C110.487 15.0992 110.266 15.1854 110.008 15.1854ZM115.96 24.1541C115.221 24.1541 114.585 23.9867 114.051 23.652C113.521 23.3139 113.113 22.8482 112.828 22.255C112.543 21.6617 112.4 20.9822 112.4 20.2166C112.4 19.4411 112.546 18.7566 112.838 18.1634C113.13 17.5668 113.541 17.1011 114.071 16.7663C114.601 16.4316 115.226 16.2642 115.945 16.2642C116.525 16.2642 117.042 16.3719 117.496 16.5874C117.95 16.7995 118.317 17.0978 118.595 17.4822C118.877 17.8667 119.044 18.3158 119.097 18.8295H117.65C117.571 18.4716 117.389 18.1634 117.104 17.9048C116.822 17.6463 116.444 17.517 115.97 17.517C115.556 17.517 115.193 17.6264 114.881 17.8452C114.573 18.0606 114.333 18.3688 114.16 18.7699C113.988 19.1676 113.902 19.6383 113.902 20.1818C113.902 20.7386 113.986 21.2192 114.155 21.6236C114.324 22.0279 114.563 22.3411 114.871 22.5632C115.183 22.7853 115.549 22.8963 115.97 22.8963C116.252 22.8963 116.507 22.8449 116.736 22.7422C116.968 22.6361 117.162 22.4853 117.317 22.2898C117.476 22.0942 117.587 21.8589 117.65 21.5838H119.097C119.044 22.0777 118.883 22.5185 118.615 22.9062C118.346 23.294 117.987 23.599 117.536 23.821C117.089 24.0431 116.563 24.1541 115.96 24.1541ZM124.251 16.3636V17.5568H120.08V16.3636H124.251ZM121.199 14.5341H122.685V21.7578C122.685 22.0462 122.728 22.2633 122.815 22.4091C122.901 22.5516 123.012 22.6494 123.148 22.7024C123.287 22.7521 123.438 22.777 123.6 22.777C123.719 22.777 123.824 22.7687 123.913 22.7521C124.003 22.7356 124.072 22.7223 124.122 22.7124L124.391 23.9403C124.304 23.9735 124.182 24.0066 124.023 24.0398C123.864 24.0762 123.665 24.0961 123.426 24.0994C123.035 24.1061 122.67 24.0365 122.332 23.8906C121.994 23.7448 121.721 23.5194 121.512 23.2145C121.303 22.9096 121.199 22.5268 121.199 22.0661V14.5341ZM130.733 20.8331V16.3636H132.225V24H130.763V22.6776H130.683C130.508 23.0852 130.226 23.425 129.838 23.6967C129.454 23.9652 128.975 24.0994 128.401 24.0994C127.911 24.0994 127.477 23.9917 127.099 23.7763C126.724 23.5575 126.429 23.2344 126.214 22.8068C126.002 22.3793 125.896 21.8506 125.896 21.2209V16.3636H127.382V21.0419C127.382 21.5623 127.526 21.9766 127.815 22.2848C128.103 22.593 128.478 22.7472 128.938 22.7472C129.217 22.7472 129.494 22.6776 129.769 22.5384C130.047 22.3991 130.277 22.1887 130.46 21.907C130.645 21.6252 130.736 21.2673 130.733 20.8331ZM134.222 24V16.3636H135.659V17.5767H135.738C135.877 17.1657 136.123 16.8426 136.474 16.6072C136.829 16.3686 137.23 16.2493 137.677 16.2493C137.77 16.2493 137.879 16.2526 138.005 16.2592C138.135 16.2659 138.236 16.2741 138.309 16.2841V17.706C138.249 17.6894 138.143 17.6712 137.99 17.6513C137.838 17.6281 137.685 17.6165 137.533 17.6165C137.182 17.6165 136.868 17.6911 136.593 17.8402C136.322 17.986 136.106 18.1899 135.947 18.4517C135.788 18.7102 135.708 19.0052 135.708 19.3366V24H134.222ZM142.613 24.1541C141.86 24.1541 141.212 23.9934 140.669 23.6719C140.129 23.3471 139.711 22.8913 139.416 22.3047C139.124 21.7147 138.979 21.0237 138.979 20.2315C138.979 19.4493 139.124 18.7599 139.416 18.1634C139.711 17.5668 140.122 17.1011 140.649 16.7663C141.179 16.4316 141.799 16.2642 142.508 16.2642C142.939 16.2642 143.357 16.3355 143.761 16.478C144.166 16.6205 144.528 16.8442 144.85 17.1491C145.171 17.4541 145.425 17.8501 145.611 18.3374C145.796 18.8213 145.889 19.4096 145.889 20.1023V20.6293H139.819V19.5156H144.432C144.432 19.1245 144.353 18.7782 144.194 18.4766C144.035 18.1716 143.811 17.9313 143.523 17.7557C143.238 17.58 142.903 17.4922 142.518 17.4922C142.101 17.4922 141.736 17.5949 141.425 17.8004C141.116 18.0026 140.878 18.2678 140.709 18.5959C140.543 18.9207 140.46 19.2737 140.46 19.6548V20.5249C140.46 21.0353 140.55 21.4695 140.729 21.8274C140.911 22.1854 141.164 22.4588 141.489 22.6477C141.814 22.8333 142.193 22.9261 142.628 22.9261C142.909 22.9261 143.166 22.8864 143.398 22.8068C143.63 22.724 143.831 22.6013 144 22.4389C144.169 22.2765 144.298 22.076 144.388 21.8374L145.795 22.0909C145.682 22.5052 145.48 22.8681 145.188 23.1797C144.9 23.4879 144.537 23.7282 144.099 23.9006C143.665 24.0696 143.17 24.1541 142.613 24.1541Z" fill="#344054"/>
</g>
<defs>
<filter id="filter0_d_1_20939" x="0" y="0" width="163" height="40" filterUnits="userSpaceOnUse" color-interpolation-filters="sRGB">
<feFlood flood-opacity="0" result="BackgroundImageFix"/>
<feColorMatrix in="SourceAlpha" type="matrix" values="0 0 0 0 0 0 0 0 0 0 0 0 0 0 0 0 0 0 127 0" result="hardAlpha"/>
<feOffset dy="1"/>
<feGaussianBlur stdDeviation="1"/>
<feColorMatrix type="matrix" values="0 0 0 0 0.0627451 0 0 0 0 0.0941176 0 0 0 0 0.156863 0 0 0 0.05 0"/>
<feBlend mode="normal" in2="BackgroundImageFix" result="effect1_dropShadow_1_20939"/>
<feBlend mode="normal" in="SourceGraphic" in2="effect1_dropShadow_1_20939" result="shape"/>
</filter>
</defs>
</svg>
