<svg width="159" height="40" viewBox="0 0 159 40" fill="none" xmlns="http://www.w3.org/2000/svg">
<g filter="url(#filter0_d_1_20809)">
<rect x="2" y="1" width="155" height="36" rx="8" fill="white"/>
<rect x="2.5" y="1.5" width="154" height="35" rx="7.5" stroke="#D0D5DD"/>
<path d="M33.5 21.5V22.5C33.5 23.9001 33.5 24.6002 33.2275 25.135C32.9878 25.6054 32.6054 25.9878 32.135 26.2275C31.6002 26.5 30.9001 26.5 29.5 26.5H22.5C21.0999 26.5 20.3998 26.5 19.865 26.2275C19.3946 25.9878 19.0122 25.6054 18.7725 25.135C18.5 24.6002 18.5 23.9001 18.5 22.5V21.5M30.1667 15.6667L26 11.5M26 11.5L21.8333 15.6667M26 11.5V21.5" stroke="#344054" stroke-width="1.66667" stroke-linecap="round" stroke-linejoin="round"/>
<path d="M51.6662 13.8182H53.2074V20.5149C53.2074 21.2275 53.04 21.8589 52.7053 22.4091C52.3705 22.956 51.8999 23.3868 51.2933 23.7017C50.6868 24.0133 49.9759 24.169 49.1605 24.169C48.3485 24.169 47.6392 24.0133 47.0327 23.7017C46.4261 23.3868 45.9555 22.956 45.6207 22.4091C45.286 21.8589 45.1186 21.2275 45.1186 20.5149V13.8182H46.6548V20.3906C46.6548 20.8513 46.7559 21.2607 46.9581 21.6186C47.1636 21.9766 47.4536 22.2583 47.8281 22.4638C48.2027 22.666 48.6468 22.767 49.1605 22.767C49.6776 22.767 50.1233 22.666 50.4979 22.4638C50.8757 22.2583 51.1641 21.9766 51.3629 21.6186C51.5651 21.2607 51.6662 20.8513 51.6662 20.3906V13.8182ZM55.3216 26.8636V16.3636H56.7733V17.6016H56.8975C56.9837 17.4425 57.108 17.2585 57.2704 17.0497C57.4328 16.8409 57.6582 16.6586 57.9466 16.5028C58.2349 16.3438 58.6161 16.2642 59.09 16.2642C59.7065 16.2642 60.2567 16.42 60.7406 16.7315C61.2245 17.0431 61.604 17.4922 61.8791 18.0788C62.1575 18.6655 62.2967 19.3714 62.2967 20.1967C62.2967 21.022 62.1592 21.7296 61.8841 22.3196C61.609 22.9062 61.2311 23.3587 60.7505 23.6768C60.2699 23.9917 59.7214 24.1491 59.1049 24.1491C58.6409 24.1491 58.2614 24.0713 57.9664 23.9155C57.6748 23.7597 57.4461 23.5774 57.2804 23.3686C57.1146 23.1598 56.987 22.9742 56.8975 22.8118H56.8081V26.8636H55.3216ZM56.7782 20.1818C56.7782 20.7187 56.8561 21.1894 57.0119 21.5938C57.1677 21.9981 57.3931 22.3146 57.688 22.5433C57.983 22.7687 58.3443 22.8814 58.7718 22.8814C59.216 22.8814 59.5872 22.7637 59.8855 22.5284C60.1838 22.2898 60.4092 21.9666 60.5616 21.5589C60.7174 21.1513 60.7953 20.6922 60.7953 20.1818C60.7953 19.678 60.719 19.2256 60.5666 18.8246C60.4174 18.4235 60.1921 18.107 59.8904 17.875C59.5922 17.643 59.2193 17.527 58.7718 17.527C58.341 17.527 57.9764 17.638 57.6781 17.8601C57.3831 18.0821 57.1594 18.392 57.0069 18.7898C56.8545 19.1875 56.7782 19.6515 56.7782 20.1818ZM65.4487 13.8182V24H63.9622V13.8182H65.4487ZM70.6651 24.1541C69.9492 24.1541 69.3245 23.9901 68.7908 23.6619C68.2572 23.3338 67.8429 22.8748 67.5479 22.2848C67.253 21.6948 67.1055 21.0054 67.1055 20.2166C67.1055 19.4245 67.253 18.7318 67.5479 18.1385C67.8429 17.5452 68.2572 17.0845 68.7908 16.7564C69.3245 16.4283 69.9492 16.2642 70.6651 16.2642C71.381 16.2642 72.0058 16.4283 72.5394 16.7564C73.073 17.0845 73.4873 17.5452 73.7823 18.1385C74.0773 18.7318 74.2248 19.4245 74.2248 20.2166C74.2248 21.0054 74.0773 21.6948 73.7823 22.2848C73.4873 22.8748 73.073 23.3338 72.5394 23.6619C72.0058 23.9901 71.381 24.1541 70.6651 24.1541ZM70.6701 22.9062C71.1341 22.9062 71.5186 22.7836 71.8235 22.5384C72.1284 22.2931 72.3538 21.9666 72.4996 21.5589C72.6488 21.1513 72.7234 20.7022 72.7234 20.2116C72.7234 19.7244 72.6488 19.277 72.4996 18.8693C72.3538 18.4583 72.1284 18.1286 71.8235 17.88C71.5186 17.6314 71.1341 17.5071 70.6701 17.5071C70.2028 17.5071 69.815 17.6314 69.5067 17.88C69.2018 18.1286 68.9748 18.4583 68.8256 18.8693C68.6798 19.277 68.6069 19.7244 68.6069 20.2116C68.6069 20.7022 68.6798 21.1513 68.8256 21.5589C68.9748 21.9666 69.2018 22.2931 69.5067 22.5384C69.815 22.7836 70.2028 22.9062 70.6701 22.9062ZM78.1064 24.169C77.6225 24.169 77.185 24.0795 76.7939 23.9006C76.4028 23.7183 76.0929 23.4548 75.8642 23.1101C75.6388 22.7654 75.5261 22.3428 75.5261 21.8423C75.5261 21.4115 75.609 21.0568 75.7747 20.7784C75.9404 20.5 76.1641 20.2796 76.4458 20.1172C76.7276 19.9548 77.0424 19.8321 77.3904 19.7493C77.7385 19.6664 78.0931 19.6035 78.4544 19.5604C78.9118 19.5073 79.283 19.4643 79.568 19.4311C79.853 19.3946 80.0602 19.3366 80.1895 19.2571C80.3187 19.1776 80.3833 19.0483 80.3833 18.8693V18.8345C80.3833 18.4003 80.2607 18.0639 80.0154 17.8253C79.7735 17.5866 79.4122 17.4673 78.9316 17.4673C78.4312 17.4673 78.0368 17.5784 77.7484 17.8004C77.4634 18.0192 77.2662 18.2628 77.1568 18.5312L75.7598 18.2131C75.9255 17.7491 76.1674 17.3745 76.4856 17.0895C76.8071 16.8011 77.1767 16.5923 77.5943 16.4631C78.0119 16.3305 78.4511 16.2642 78.9118 16.2642C79.2167 16.2642 79.5398 16.3007 79.8812 16.3736C80.2259 16.4432 80.5474 16.5724 80.8457 16.7614C81.1473 16.9503 81.3942 17.2204 81.5865 17.5717C81.7787 17.9197 81.8748 18.3722 81.8748 18.929V24H80.4231V22.956H80.3635C80.2673 23.1482 80.1232 23.3371 79.9309 23.5227C79.7387 23.7083 79.4918 23.8625 79.1902 23.9851C78.8886 24.1077 78.5273 24.169 78.1064 24.169ZM78.4295 22.9759C78.8405 22.9759 79.1918 22.8946 79.4835 22.7322C79.7785 22.5698 80.0022 22.3577 80.1547 22.0959C80.3104 21.8307 80.3883 21.5473 80.3883 21.2457V20.2614C80.3353 20.3144 80.2325 20.3641 80.0801 20.4105C79.9309 20.4536 79.7602 20.4917 79.568 20.5249C79.3758 20.5547 79.1885 20.5829 79.0062 20.6094C78.8239 20.6326 78.6715 20.6525 78.5488 20.669C78.2605 20.7055 77.997 20.7668 77.7583 20.853C77.523 20.9392 77.3341 21.0634 77.1916 21.2259C77.0524 21.3849 76.9828 21.5971 76.9828 21.8622C76.9828 22.2301 77.1187 22.5085 77.3904 22.6974C77.6622 22.883 78.0086 22.9759 78.4295 22.9759ZM86.7134 24.1491C86.0969 24.1491 85.5468 23.9917 85.0629 23.6768C84.5823 23.3587 84.2044 22.9062 83.9293 22.3196C83.6576 21.7296 83.5217 21.022 83.5217 20.1967C83.5217 19.3714 83.6592 18.6655 83.9343 18.0788C84.2127 17.4922 84.5939 17.0431 85.0778 16.7315C85.5617 16.42 86.1102 16.2642 86.7234 16.2642C87.1973 16.2642 87.5785 16.3438 87.8668 16.5028C88.1585 16.6586 88.3839 16.8409 88.543 17.0497C88.7054 17.2585 88.8313 17.4425 88.9208 17.6016H89.0103V13.8182H90.4968V24H89.0451V22.8118H88.9208C88.8313 22.9742 88.7021 23.1598 88.533 23.3686C88.3673 23.5774 88.1386 23.7597 87.8469 23.9155C87.5553 24.0713 87.1774 24.1491 86.7134 24.1491ZM87.0415 22.8814C87.4691 22.8814 87.8304 22.7687 88.1254 22.5433C88.4237 22.3146 88.649 21.9981 88.8015 21.5938C88.9573 21.1894 89.0352 20.7187 89.0352 20.1818C89.0352 19.6515 88.9589 19.1875 88.8065 18.7898C88.654 18.392 88.4303 18.0821 88.1353 17.8601C87.8403 17.638 87.4757 17.527 87.0415 17.527C86.5941 17.527 86.2212 17.643 85.9229 17.875C85.6246 18.107 85.3993 18.4235 85.2468 18.8246C85.0977 19.2256 85.0231 19.678 85.0231 20.1818C85.0231 20.6922 85.0993 21.1513 85.2518 21.5589C85.4042 21.9666 85.6296 22.2898 85.9279 22.5284C86.2295 22.7637 86.6007 22.8814 87.0415 22.8814ZM96.3235 26.8636V16.3636H97.7752V17.6016H97.8995C97.9857 17.4425 98.11 17.2585 98.2724 17.0497C98.4348 16.8409 98.6602 16.6586 98.9485 16.5028C99.2369 16.3438 99.618 16.2642 100.092 16.2642C100.708 16.2642 101.259 16.42 101.743 16.7315C102.226 17.0431 102.606 17.4922 102.881 18.0788C103.159 18.6655 103.299 19.3714 103.299 20.1967C103.299 21.022 103.161 21.7296 102.886 22.3196C102.611 22.9062 102.233 23.3587 101.752 23.6768C101.272 23.9917 100.723 24.1491 100.107 24.1491C99.6429 24.1491 99.2634 24.0713 98.9684 23.9155C98.6767 23.7597 98.448 23.5774 98.2823 23.3686C98.1166 23.1598 97.989 22.9742 97.8995 22.8118H97.81V26.8636H96.3235ZM97.7802 20.1818C97.7802 20.7187 97.8581 21.1894 98.0138 21.5938C98.1696 21.9981 98.395 22.3146 98.69 22.5433C98.985 22.7687 99.3462 22.8814 99.7738 22.8814C100.218 22.8814 100.589 22.7637 100.887 22.5284C101.186 22.2898 101.411 21.9666 101.564 21.5589C101.719 21.1513 101.797 20.6922 101.797 20.1818C101.797 19.678 101.721 19.2256 101.569 18.8246C101.419 18.4235 101.194 18.107 100.892 17.875C100.594 17.643 100.221 17.527 99.7738 17.527C99.3429 17.527 98.9783 17.638 98.68 17.8601C98.3851 18.0821 98.1613 18.392 98.0089 18.7898C97.8564 19.1875 97.7802 19.6515 97.7802 20.1818ZM104.964 24V16.3636H106.451V24H104.964ZM105.715 15.1854C105.456 15.1854 105.234 15.0992 105.049 14.9268C104.866 14.7512 104.775 14.5424 104.775 14.3004C104.775 14.0552 104.866 13.8464 105.049 13.674C105.234 13.4983 105.456 13.4105 105.715 13.4105C105.973 13.4105 106.194 13.4983 106.376 13.674C106.562 13.8464 106.654 14.0552 106.654 14.3004C106.654 14.5424 106.562 14.7512 106.376 14.9268C106.194 15.0992 105.973 15.1854 105.715 15.1854ZM111.667 24.1541C110.928 24.1541 110.292 23.9867 109.758 23.652C109.228 23.3139 108.82 22.8482 108.535 22.255C108.25 21.6617 108.107 20.9822 108.107 20.2166C108.107 19.4411 108.253 18.7566 108.545 18.1634C108.837 17.5668 109.248 17.1011 109.778 16.7663C110.308 16.4316 110.933 16.2642 111.652 16.2642C112.232 16.2642 112.749 16.3719 113.203 16.5874C113.657 16.7995 114.024 17.0978 114.302 17.4822C114.584 17.8667 114.751 18.3158 114.804 18.8295H113.357C113.278 18.4716 113.096 18.1634 112.811 17.9048C112.529 17.6463 112.151 17.517 111.677 17.517C111.263 17.517 110.9 17.6264 110.588 17.8452C110.28 18.0606 110.04 18.3688 109.867 18.7699C109.695 19.1676 109.609 19.6383 109.609 20.1818C109.609 20.7386 109.693 21.2192 109.862 21.6236C110.031 22.0279 110.27 22.3411 110.578 22.5632C110.89 22.7853 111.256 22.8963 111.677 22.8963C111.959 22.8963 112.214 22.8449 112.443 22.7422C112.675 22.6361 112.869 22.4853 113.024 22.2898C113.183 22.0942 113.294 21.8589 113.357 21.5838H114.804C114.751 22.0777 114.59 22.5185 114.322 22.9062C114.053 23.294 113.694 23.599 113.243 23.821C112.796 24.0431 112.27 24.1541 111.667 24.1541ZM119.958 16.3636V17.5568H115.787V16.3636H119.958ZM116.906 14.5341H118.392V21.7578C118.392 22.0462 118.435 22.2633 118.522 22.4091C118.608 22.5516 118.719 22.6494 118.855 22.7024C118.994 22.7521 119.145 22.777 119.307 22.777C119.426 22.777 119.531 22.7687 119.62 22.7521C119.71 22.7356 119.779 22.7223 119.829 22.7124L120.098 23.9403C120.011 23.9735 119.889 24.0066 119.73 24.0398C119.571 24.0762 119.372 24.0961 119.133 24.0994C118.742 24.1061 118.377 24.0365 118.039 23.8906C117.701 23.7448 117.428 23.5194 117.219 23.2145C117.01 22.9096 116.906 22.5268 116.906 22.0661V14.5341ZM126.44 20.8331V16.3636H127.932V24H126.47V22.6776H126.39C126.215 23.0852 125.933 23.425 125.545 23.6967C125.161 23.9652 124.682 24.0994 124.108 24.0994C123.618 24.0994 123.184 23.9917 122.806 23.7763C122.431 23.5575 122.136 23.2344 121.921 22.8068C121.709 22.3793 121.603 21.8506 121.603 21.2209V16.3636H123.089V21.0419C123.089 21.5623 123.233 21.9766 123.522 22.2848C123.81 22.593 124.185 22.7472 124.645 22.7472C124.924 22.7472 125.201 22.6776 125.476 22.5384C125.754 22.3991 125.984 22.1887 126.167 21.907C126.352 21.6252 126.443 21.2673 126.44 20.8331ZM129.929 24V16.3636H131.366V17.5767H131.445C131.585 17.1657 131.83 16.8426 132.181 16.6072C132.536 16.3686 132.937 16.2493 133.384 16.2493C133.477 16.2493 133.586 16.2526 133.712 16.2592C133.842 16.2659 133.943 16.2741 134.016 16.2841V17.706C133.956 17.6894 133.85 17.6712 133.697 17.6513C133.545 17.6281 133.393 17.6165 133.24 17.6165C132.889 17.6165 132.576 17.6911 132.3 17.8402C132.029 17.986 131.813 18.1899 131.654 18.4517C131.495 18.7102 131.415 19.0052 131.415 19.3366V24H129.929ZM138.32 24.1541C137.567 24.1541 136.919 23.9934 136.376 23.6719C135.836 23.3471 135.418 22.8913 135.123 22.3047C134.831 21.7147 134.686 21.0237 134.686 20.2315C134.686 19.4493 134.831 18.7599 135.123 18.1634C135.418 17.5668 135.829 17.1011 136.356 16.7663C136.886 16.4316 137.506 16.2642 138.215 16.2642C138.646 16.2642 139.064 16.3355 139.468 16.478C139.873 16.6205 140.235 16.8442 140.557 17.1491C140.878 17.4541 141.132 17.8501 141.318 18.3374C141.503 18.8213 141.596 19.4096 141.596 20.1023V20.6293H135.526V19.5156H140.139C140.139 19.1245 140.06 18.7782 139.901 18.4766C139.742 18.1716 139.518 17.9313 139.23 17.7557C138.945 17.58 138.61 17.4922 138.225 17.4922C137.808 17.4922 137.443 17.5949 137.132 17.8004C136.823 18.0026 136.585 18.2678 136.416 18.5959C136.25 18.9207 136.167 19.2737 136.167 19.6548V20.5249C136.167 21.0353 136.257 21.4695 136.436 21.8274C136.618 22.1854 136.871 22.4588 137.196 22.6477C137.521 22.8333 137.901 22.9261 138.335 22.9261C138.616 22.9261 138.873 22.8864 139.105 22.8068C139.337 22.724 139.538 22.6013 139.707 22.4389C139.876 22.2765 140.005 22.076 140.095 21.8374L141.502 22.0909C141.389 22.5052 141.187 22.8681 140.895 23.1797C140.607 23.4879 140.244 23.7282 139.806 23.9006C139.372 24.0696 138.877 24.1541 138.32 24.1541Z" fill="#344054"/>
</g>
<defs>
<filter id="filter0_d_1_20809" x="0" y="0" width="159" height="40" filterUnits="userSpaceOnUse" color-interpolation-filters="sRGB">
<feFlood flood-opacity="0" result="BackgroundImageFix"/>
<feColorMatrix in="SourceAlpha" type="matrix" values="0 0 0 0 0 0 0 0 0 0 0 0 0 0 0 0 0 0 127 0" result="hardAlpha"/>
<feOffset dy="1"/>
<feGaussianBlur stdDeviation="1"/>
<feColorMatrix type="matrix" values="0 0 0 0 0.0627451 0 0 0 0 0.0941176 0 0 0 0 0.156863 0 0 0 0.05 0"/>
<feBlend mode="normal" in2="BackgroundImageFix" result="effect1_dropShadow_1_20809"/>
<feBlend mode="normal" in="SourceGraphic" in2="effect1_dropShadow_1_20809" result="shape"/>
</filter>
</defs>
</svg>
