<svg width="20" height="20" viewBox="0 0 20 20" fill="none" xmlns="http://www.w3.org/2000/svg">
<path d="M2 4C2 1.79086 3.79086 0 6 0H12L18 6V16C18 18.2091 16.2091 20 14 20H6C3.79086 20 2 18.2091 2 16V4Z" fill="#D92D20"/>
<path opacity="0.3" d="M12 0L18 6H16C13.7909 6 12 4.20914 12 2V0Z" fill="white"/>
<path d="M12.5373 12.5975C12.0382 12.5975 11.4137 12.6845 11.2094 12.7152C10.3637 11.8321 10.1231 11.3301 10.069 11.1963C10.1423 11.0079 10.3975 10.292 10.4338 9.37263C10.4517 8.91232 10.3544 8.56837 10.1447 8.35033C9.93533 8.13265 9.68191 8.11572 9.60924 8.11572C9.35443 8.11572 8.92697 8.24457 8.92697 9.10744C8.92697 9.85611 9.27603 10.6505 9.37252 10.8558C8.86415 12.336 8.31837 13.3493 8.20248 13.5577C6.15974 14.3268 6 15.0704 6 15.2812C6 15.6599 6.26973 15.886 6.72152 15.886C7.8192 15.886 8.8209 14.0432 8.98653 13.7232C9.76614 13.4125 10.8096 13.2201 11.0749 13.1742C11.8357 13.899 12.7157 14.0924 13.0811 14.0924C13.3561 14.0924 14 14.0924 14 13.4304C14 12.8156 13.2121 12.5975 12.5373 12.5975ZM12.4844 13.0321C13.0773 13.0321 13.234 13.2282 13.234 13.3319C13.234 13.3969 13.2093 13.6092 12.8915 13.6092C12.6065 13.6092 12.1145 13.4445 11.6303 13.0871C11.8322 13.0606 12.131 13.0321 12.4844 13.0321ZM9.57812 8.53699C9.63218 8.53699 9.66777 8.55435 9.69711 8.59505C9.86764 8.83167 9.73014 9.60483 9.56279 10.2099C9.40124 9.69108 9.28 8.89505 9.45058 8.615C9.48392 8.56034 9.52204 8.53699 9.57812 8.53699ZM9.29017 13.168C9.50483 12.7344 9.74542 12.1024 9.87646 11.7449C10.1387 12.1839 10.4914 12.5914 10.6954 12.8124C10.0603 12.9463 9.57969 13.0801 9.29017 13.168ZM6.4264 15.3391C6.41226 15.3223 6.41017 15.2869 6.42083 15.2445C6.44317 15.1555 6.61396 14.7146 7.84924 14.162C7.67236 14.4406 7.39585 14.8387 7.09208 15.1361C6.87825 15.3362 6.71174 15.4377 6.59719 15.4377C6.55621 15.4377 6.49974 15.4266 6.4264 15.3391Z" fill="white"/>
</svg>
